<svg xmlns="http://www.w3.org/2000/svg" viewBox="0 0 24 24" fill="white" width="18px" height="18px">
    <path d="M 0 0 h 24 v 24 H 0 z" fill="none"/>
    <circle fill="darkblue" cx="12" cy="12" r="12"/>
    <circle cx="12" cy="12" r="2.2"/>
    <path d="M 9.7 4.4 L 8.3 6 H 5.8 c -0.9 0 -1.5 0.7 -1.5 1.5 v 9 c 0 0.9 0.7 1.5 1.5 1.5 h 12.2 c 0.9 0 1.5 -0.7 1.5 -1.5 V 7.5 c 0 -0.9 -0.7 -1.5 -1.5 -1.5 h -2.5 L 14.2 4.4 H 9.7 z m 2.3 11.4 c -2.1 0 -3.9 -1.7 -3.9 -3.8 s 1.7 -3.8 3.9 -3.8 s 3.9 1.7 3.9 3.8 s -1.7 3.8 -3.9 3.8 z"/>
</svg>
